<svg width="16" height="16" viewBox="0 0 16 16" fill="none" xmlns="http://www.w3.org/2000/svg">
<path d="M3.74287 6.04692L5.75439 7.21594L5.75094 5.90081L3.73942 4.73178L3.74287 6.04692Z" fill="#A99E76"/>
<path d="M3.74268 6.04676L3.73928 4.73156L3.01205 5.15115L3.01602 6.46686L3.74268 6.04676Z" fill="#FFD977"/>
<path d="M3.01598 6.46708L5.02756 7.63611L5.75415 7.21601L3.74263 6.04699L3.01598 6.46708Z" fill="#DCC05E"/>
<path d="M5.46265 3.73605L5.46034 2.90098L3.7365 3.89585L3.73874 4.73157L5.46265 3.73605Z" fill="#FFD977"/>
<path d="M5.46327 3.73631L7.47485 4.90533L7.47255 4.0702L5.46103 2.90117L5.46327 3.73631Z" fill="#A99E76"/>
<path d="M3.73949 4.73179L5.75101 5.90082L7.47485 4.9053L5.46333 3.73627L3.73949 4.73179Z" fill="#DCC05E"/>
<path d="M3.02071 8.04551L5.03223 9.21454L5.02768 7.63623L3.0161 6.46721L3.02071 8.04551Z" fill="#A99E76"/>
<path d="M2.29323 8.46521L4.30475 9.63422L5.03198 9.21465L3.02046 8.04563L2.29323 8.46521Z" fill="#DCC05E"/>
<path d="M3.02075 8.04544L3.01614 6.46714L2.28898 6.88672L2.29352 8.46503L3.02075 8.04544Z" fill="#FFD977"/>
<path d="M8.20752 1.31482L8.20522 0.479746L5.45853 2.06541L5.46077 2.90112L8.20752 1.31482Z" fill="#FFD977"/>
<path d="M5.46124 2.90129L7.47276 4.07031L10.2195 2.48401L8.20792 1.31499L5.46124 2.90129Z" fill="#DCC05E"/>
<path d="M8.20798 1.31499L10.2195 2.48401L10.2172 1.64894L8.20568 0.479913L8.20798 1.31499Z" fill="#A99E76"/>
<path d="M2.302 11.6217L2.29343 8.46516L1.56619 8.88526L1.57535 12.0413L2.302 11.6217Z" fill="#FFD977"/>
<path d="M1.57555 12.041L3.58707 13.21L4.31372 12.7905L2.3022 11.6215L1.57555 12.041Z" fill="#DCC05E"/>
<path d="M2.30171 11.6219L4.31323 12.791L4.30466 9.63438L2.29314 8.46536L2.30171 11.6219Z" fill="#A99E76"/>
<path d="M8.20991 2.15068L10.2214 3.3197L10.2192 2.48405L8.20761 1.31503L8.20991 2.15068Z" fill="#FFFCEC"/>
<path d="M2.30257 11.6219L4.31409 12.791L5.04126 12.3708L3.02974 11.2018L2.30257 11.6219Z" fill="#DCC05E"/>
<path d="M3.03358 12.7803L5.04517 13.9487L5.04056 12.3704L3.02904 11.2014L3.03358 12.7803Z" fill="#A99E76"/>
<path d="M3.03442 12.7806L3.02982 11.2017L2.30265 11.6218L2.30719 13.2001L3.03442 12.7806Z" fill="#FFD977"/>
<path d="M2.30666 13.1998L4.31818 14.3688L5.04541 13.9487L3.03389 12.7802L2.30666 13.1998Z" fill="#DCC05E"/>
<path d="M8.20991 2.15068L10.2215 3.3197L11.9453 2.32476L9.93378 1.1558L8.20991 2.15068Z" fill="#DCC05E"/>
<path d="M9.93359 1.15569L9.93131 0.320043L8.20745 1.31492L8.20975 2.15063L9.93359 1.15569Z" fill="#FFD977"/>
<path d="M9.93377 1.15599L11.9453 2.32501L11.943 1.48937L9.93149 0.320341L9.93377 1.15599Z" fill="#DCC05E"/>
<path d="M3.03395 12.7803L5.04547 13.9487L5.77271 13.5292L3.76119 12.3602L3.03395 12.7803Z" fill="#DCC05E"/>
<path d="M9.93744 2.47068L11.949 3.63971L11.9456 2.32457L9.93401 1.15555L9.93744 2.47068Z" fill="#FFFCEC"/>
<path d="M3.76465 13.675L3.76126 12.3599L3.03402 12.78L3.03748 14.0952L3.76465 13.675Z" fill="#FFD977"/>
<path d="M3.7646 13.6752L5.77612 14.8442L5.77267 13.5291L3.76115 12.3601L3.7646 13.6752Z" fill="#A99E76"/>
<path d="M3.03761 14.0952L5.04971 15.2642L5.77637 14.8441L3.76485 13.6751L3.03761 14.0952Z" fill="#DCC05E"/>
<path d="M10.6648 2.05155L10.6614 0.735835L9.93416 1.15599L9.93758 2.47113L10.6648 2.05155Z" fill="#FFD977"/>
<path d="M9.93655 2.47068L11.9481 3.63971L12.6753 3.22019L10.6638 2.05117L9.93655 2.47068Z" fill="#DCC05E"/>
<path d="M10.665 2.05113L12.6765 3.22015L12.6731 1.90444L10.6616 0.735418L10.665 2.05113Z" fill="#DCC05E"/>
<path d="M10.6686 3.62944L12.6802 4.79846L12.6756 3.22016L10.6641 2.05113L10.6686 3.62944Z" fill="#FFFCEC"/>
<path d="M3.76409 13.6752L5.77567 14.8442L7.49951 13.8493L5.48799 12.6803L3.76409 13.6752Z" fill="#DCC05E"/>
<path d="M10.669 3.62944L12.6805 4.79846L13.4077 4.3783L11.3962 3.20928L10.669 3.62944Z" fill="#DCC05E"/>
<path d="M11.3957 3.20939L13.4072 4.37842L13.4027 2.80011L11.3911 1.63109L11.3957 3.20939Z" fill="#DCC05E"/>
<path d="M11.3958 3.20973L11.3912 1.63142L10.664 2.05158L10.6685 3.62982L11.3958 3.20973Z" fill="#FFD977"/>
<path d="M3.76659 14.511L5.77811 15.68L7.50195 14.6845L5.49043 13.5161L3.76659 14.511Z" fill="#DCC05E"/>
<path d="M5.49023 13.5157L5.48799 12.68L3.76409 13.675L3.76639 14.5106L5.49023 13.5157Z" fill="#FFD977"/>
<path d="M5.49043 13.5164L7.50195 14.6848L7.49965 13.8497L5.48813 12.6807L5.49043 13.5164Z" fill="#A99E76"/>
<path d="M11.4052 6.36613L13.4167 7.53516L13.4082 4.37855L11.3967 3.20952L11.4052 6.36613Z" fill="#FFFCEC"/>
<path d="M10.6781 6.78569L12.6896 7.95471L13.4163 7.53519L11.4047 6.36617L10.6781 6.78569Z" fill="#DCC05E"/>
<path d="M8.23771 11.93L10.2493 13.0991L10.2464 12.264L8.23489 11.0949L8.23771 11.93Z" fill="#FFFCEC"/>
<path d="M5.49067 13.5164L7.50219 14.6848L10.2495 13.0991L8.238 11.9301L5.49067 13.5164Z" fill="#DCC05E"/>
<path d="M9.95543 8.78428L11.967 9.95331L12.6936 9.53319L10.6826 8.36419L9.95543 8.78428Z" fill="#DCC05E"/>
<path d="M10.6826 8.36411L12.6936 9.53314L12.6896 7.95483L10.6781 6.78581L10.6826 8.36411Z" fill="#FFFCEC"/>
<path d="M5.49366 14.3508L7.50466 15.5198L10.252 13.9341L8.24041 12.7651L5.49366 14.3508Z" fill="#DCC05E"/>
<path d="M8.24023 12.7655L8.23799 11.9299L5.49067 13.5162L5.49355 14.3513L8.24023 12.7655Z" fill="#FFD977"/>
<path d="M8.23971 12.7658L10.2512 13.9348L10.2489 13.0992L8.23741 11.9301L8.23971 12.7658Z" fill="#A99E76"/>
<path d="M8.23509 11.0946L10.2466 12.2636L11.9705 11.2681L9.95893 10.0991L8.23509 11.0946Z" fill="#DCC05E"/>
<path d="M9.95893 10.0994L11.9705 11.2684L11.967 9.95329L9.9555 8.78425L9.95893 10.0994Z" fill="#FFFCEC"/>
<path d="M8.23747 11.9296L8.23459 11.0945L9.95843 10.0991L9.95501 8.78389L10.6822 8.36379L10.6777 6.78549L11.4043 6.36597L11.3957 3.20936L10.6685 3.62946L10.664 2.05122L9.93675 2.47074L9.93332 1.1556L8.20944 2.15055L8.2072 1.31483L5.46045 2.90114L5.46275 3.73621L3.73891 4.73173L3.74231 6.04686L3.01565 6.46696L3.02026 8.04526L2.29303 8.46485L2.3016 11.6214L3.02884 11.2013L3.03338 12.7801L3.76061 12.36L3.764 13.6752L5.48784 12.6803L5.49015 13.5159L8.23747 11.9296Z" fill="#DCC05E"/>
<path d="M10.682 8.36411L12.693 9.53314L13.4202 9.11362L11.4086 7.94459L10.682 8.36411Z" fill="#DCC05E"/>
<path d="M11.4094 7.94437L11.4049 6.36607L10.6782 6.78559L10.6828 8.36389L11.4094 7.94437Z" fill="#FFD977"/>
<path d="M11.4096 7.94444L13.4211 9.1134L13.4166 7.53516L11.405 6.36614L11.4096 7.94444Z" fill="#A99E76"/>
<path d="M10.686 9.6797L10.6826 8.36399L9.9554 8.78409L9.95882 10.0992L10.686 9.6797Z" fill="#FFD977"/>
<path d="M10.6855 9.68004L12.697 10.8491L12.693 9.53334L10.6821 8.36435L10.6855 9.68004Z" fill="#A99E76"/>
<path d="M9.95852 10.0994L11.9701 11.2684L12.6973 10.8489L10.6857 9.67987L9.95852 10.0994Z" fill="#DCC05E"/>
<path d="M9.96118 10.9351L9.9589 10.0994L8.23506 11.0949L8.23788 11.93L9.96118 10.9351Z" fill="#FFD977"/>
<path d="M9.96088 10.9346L11.9724 12.1036L11.9701 11.2679L9.95859 10.0989L9.96088 10.9346Z" fill="#A99E76"/>
<path d="M8.23761 11.93L10.2491 13.0991L11.9724 12.1041L9.96088 10.9351L8.23761 11.93Z" fill="#DCC05E"/>
<path d="M12.1318 5.94581L12.1227 2.78984L11.3955 3.20936L11.4041 6.36597L12.1318 5.94581Z" fill="#FFD977"/>
<path d="M12.132 5.94597L14.1436 7.11499L14.1344 3.95838L12.1229 2.78993L12.132 5.94597Z" fill="#A99E76"/>
<path d="M11.4045 6.36613L13.416 7.53516L14.1438 7.11506L12.1323 5.94604L11.4045 6.36613Z" fill="#DCC05E"/>
</svg>
