<svg width="160" height="160" viewBox="0 0 160 160" fill="none" xmlns="http://www.w3.org/2000/svg">
<path d="M10 20C10 8.9543 18.9543 0 30 0H90C101.046 0 110 8.95431 110 20V100C121.046 100 130 108.954 130 120V125C130 127.761 132.239 130 135 130C137.761 130 140 127.761 140 125V80H135C132.239 80 130 77.7615 130 75V43.75C130 40.9886 132.239 38.75 135 38.75H149.954C149.836 33.9925 149.415 29.8105 147.94 26.5332C147.04 24.5329 145.797 23.0213 144.003 21.9525C142.161 20.855 139.359 20 135 20C132.239 20 130 17.7614 130 15C130 12.2386 132.239 10 135 10C140.641 10 145.339 11.1076 149.122 13.3619C152.953 15.6448 155.46 18.8741 157.06 22.4301C160.006 28.9773 160.002 37.0805 160 43.2397L160 74.9999C160 77.7615 157.761 80 155 80H150V125C150 133.284 143.284 140 135 140C126.716 140 120 133.284 120 125V120C120 114.477 115.523 110 110 110V150H115C117.761 150 120 152.239 120 155C120 157.761 117.761 160 115 160H5C2.23858 160 0 157.761 0 155C0 152.239 2.23858 150 5 150H10V20ZM35 20C32.2386 20 30 22.2386 30 25V75C30 77.7614 32.2386 80 35 80H85C87.7614 80 90 77.7614 90 75V25C90 22.2386 87.7614 20 85 20H35Z" fill="black"/>
</svg>
