<svg width="160" height="160" viewBox="0 0 160 160" fill="none" xmlns="http://www.w3.org/2000/svg">
<g clip-path="url(#clip0_26_114)">
<path d="M80 160C124.183 160 160 124.183 160 80C160 35.8172 124.183 0 80 0C35.8172 0 0 35.8172 0 80C0 124.183 35.8172 160 80 160Z" fill="black"/>
<path d="M113.499 72.4C113.499 76.4667 112.565 80.2 110.699 83.6C108.832 86.9333 105.965 89.6333 102.099 91.7C98.2322 93.7667 93.4322 94.8 87.6988 94.8H77.0988V120H59.9988V49.8H87.6988C93.2988 49.8 98.0322 50.7667 101.899 52.7C105.765 54.6333 108.665 57.3 110.599 60.7C112.532 64.1 113.499 68 113.499 72.4ZM86.3988 81.2C89.6655 81.2 92.0988 80.4333 93.6988 78.9C95.2988 77.3667 96.0988 75.2 96.0988 72.4C96.0988 69.6 95.2988 67.4333 93.6988 65.9C92.0988 64.3667 89.6655 63.6 86.3988 63.6H77.0988V81.2H86.3988Z" fill="white"/>
</g>
<defs>
<clipPath id="clip0_26_114">
<rect width="160" height="160" fill="white"/>
</clipPath>
</defs>
</svg>
