<svg width="160" height="160" viewBox="0 0 160 160" fill="none" xmlns="http://www.w3.org/2000/svg">
<path d="M10 0L0 10L22.0088 40.8124C23.886 43.4403 26.9167 45 30.1462 45H30.8579C33.51 45 36.0536 46.0536 37.9289 47.9289L64.6789 74.6789L38.5099 101.224C35.8121 100.428 32.956 100 30 100C13.4315 100 0 113.431 0 130C0 146.569 13.4315 160 30 160C46.5685 160 60 146.569 60 130C60 127.044 59.5725 124.188 58.7759 121.49L85.3212 95.3212L95 105L91.9544 114.137C90.7566 117.73 91.6918 121.692 94.3702 124.37L127.071 157.071C129.024 159.024 131.583 160 134.142 160C136.701 160 139.261 159.024 141.213 157.071L157.071 141.213C159.024 139.261 160 136.701 160 134.142C160 131.583 159.024 129.024 157.071 127.071L124.37 94.3702C121.692 91.6918 117.73 90.7566 114.137 91.9544L105 95L95.3926 85.3926L122.191 58.9737C124.681 59.643 127.299 60 130 60C146.569 60 160 46.5685 160 30C160 27.3126 159.647 24.7078 158.984 22.2294L137.574 43.6396L120 39.9998L116.36 22.4264L137.771 1.01615C135.292 0.353359 132.687 0 130 0C113.431 0 100 13.4315 100 30C100 32.7012 100.357 35.3191 101.026 37.8089L74.6076 64.6076L47.9289 37.9289C46.0536 36.0536 45 33.51 45 30.8579V30.1462C45 26.9167 43.4403 23.886 40.8124 22.0088L10 0ZM106.464 106.464C108.417 104.512 111.583 104.512 113.536 106.464L142.678 135.607C144.63 137.559 144.63 140.725 142.678 142.678C140.725 144.63 137.559 144.63 135.607 142.678L106.464 113.536C104.512 111.583 104.512 108.417 106.464 106.464ZM30 110L34.7105 112.42L40 112.679L42.8693 117.13L47.3205 120L47.5798 125.289L50 130L47.5798 134.71L47.3205 140L42.8693 142.869L40 147.32L34.7105 147.58L30 150L25.2895 147.58L20 147.32L17.1307 142.869L12.6795 140L12.4202 134.71L10 130L12.4202 125.289L12.6795 120L17.1307 117.13L20 112.679L25.2895 112.42L30 110Z" fill="black"/>
</svg>
